<svg width="19" height="18" viewBox="0 0 19 18" fill="none" xmlns="http://www.w3.org/2000/svg">
<path fill-rule="evenodd" clip-rule="evenodd" d="M0.5 9C0.5 4.03111 4.53111 0 9.5 0C14.4689 0 18.5 4.03111 18.5 9C18.5 13.9689 14.4689 18 9.5 18C4.53111 18 0.5 13.9689 0.5 9ZM9.5 1.38462C5.29581 1.38462 1.88462 4.79581 1.88462 9C1.88462 13.2042 5.29581 16.6154 9.5 16.6154C13.7042 16.6154 17.1154 13.2042 17.1154 9C17.1154 4.79581 13.7042 1.38462 9.5 1.38462Z" fill="#404750"/>
<path fill-rule="evenodd" clip-rule="evenodd" d="M12.8216 6.11716C13.033 6.29477 13.0605 6.61016 12.8828 6.82161L8.68285 11.8216C8.58977 11.9324 8.45324 11.9975 8.30854 11.9999C8.16384 12.0024 8.02517 11.9421 7.92835 11.8345L6.12836 9.83449C5.94363 9.62923 5.96027 9.31309 6.16552 9.12836C6.37078 8.94363 6.68692 8.96027 6.87165 9.16552L8.28699 10.7381L12.1171 6.17842C12.2948 5.96697 12.6101 5.93955 12.8216 6.11716Z" fill="white"/>
</svg>
