<svg width="16" height="13" viewBox="0 0 16 13" fill="none" xmlns="http://www.w3.org/2000/svg">
<path d="M2 0H14C14.5303 0.000586561 15.0386 0.218672 15.4136 0.606404C15.7885 0.994137 15.9994 1.51985 16 2.06818V10.9318C15.9994 11.4802 15.7885 12.0059 15.4136 12.3936C15.0386 12.7813 14.5303 12.9994 14 13H2C1.46974 12.9994 0.961362 12.7813 0.586412 12.3936C0.211462 12.0059 0.000566483 11.4802 0 10.9318V2.06818C0.000566483 1.51985 0.211462 0.994137 0.586412 0.606404C0.961362 0.218672 1.46974 0.000586561 2 0ZM2.50643 3.42099L7.64929 7.55736C7.74957 7.63798 7.87298 7.68174 8 7.68174C8.12702 7.68174 8.25043 7.63798 8.35071 7.55736L13.4936 3.42099C13.554 3.37381 13.6047 3.31467 13.6429 3.24703C13.681 3.17938 13.7058 3.10458 13.7157 3.02695C13.7256 2.94933 13.7205 2.87044 13.7007 2.79487C13.6809 2.7193 13.6468 2.64855 13.6003 2.58673C13.5538 2.52492 13.496 2.47328 13.43 2.4348C13.3641 2.39632 13.2914 2.37178 13.2162 2.36261C13.141 2.35343 13.0648 2.3598 12.992 2.38134C12.9192 2.40288 12.8513 2.43917 12.7921 2.4881L8 6.3423L3.20786 2.4881C3.08803 2.39452 2.93739 2.35348 2.78853 2.37385C2.63967 2.39422 2.50454 2.47436 2.41237 2.59694C2.32021 2.71953 2.2784 2.8747 2.296 3.02891C2.3136 3.18312 2.38919 3.32397 2.50643 3.42099Z" fill="#393F47"/>
</svg>
