<svg width="12" height="12" viewBox="0 0 12 12" fill="none" xmlns="http://www.w3.org/2000/svg">
<path d="M11.1581 5.04158H5.95969V7.13421H8.92937C8.80131 7.81062 8.41284 8.38274 7.82725 8.76604C7.3323 9.09015 6.70067 9.2818 5.95825 9.2818C4.52089 9.2818 3.3051 8.3306 2.87059 7.05248C2.76124 6.72836 2.69793 6.38171 2.69793 6.02519C2.69793 5.66866 2.76124 5.322 2.87059 4.99789C3.30654 3.72118 4.52233 2.76998 5.95969 2.76998C6.76973 2.76998 7.49632 3.04336 8.06897 3.57885L9.65164 2.02734C8.69484 1.15365 7.44741 0.618164 5.95969 0.618164C3.80293 0.618164 1.93681 1.83006 1.02892 3.59717C0.654837 4.32712 0.441895 5.1529 0.441895 6.02659C0.441895 6.90028 0.654837 7.72465 1.02892 8.45461C1.93681 10.2217 3.80293 11.4336 5.95969 11.4336C7.45028 11.4336 8.69916 10.9489 9.61136 10.1231C10.6545 9.18175 11.2573 7.79511 11.2573 6.14778C11.2573 5.76449 11.2228 5.39669 11.1581 5.04158Z" fill="white"/>
</svg>
