<svg width="13" height="12" viewBox="0 0 13 12" fill="none" xmlns="http://www.w3.org/2000/svg">
<path d="M12.0311 7.04317V11.4769H9.46063V7.34C9.46063 6.30051 9.0887 5.5915 8.15857 5.5915C7.44836 5.5915 7.02535 6.06978 6.83969 6.53184C6.77179 6.69708 6.75437 6.92721 6.75437 7.15854V11.4769H4.18269C4.18269 11.4769 4.21754 4.4709 4.18269 3.74446H6.75437V4.84042L6.73754 4.86566H6.75437V4.84042C7.09566 4.31467 7.70553 3.563 9.07128 3.563C10.7627 3.563 12.0311 4.66858 12.0311 7.04317ZM1.49325 0.017334C0.614196 0.017334 0.0385742 0.594158 0.0385742 1.35304C0.0385742 2.0951 0.597372 2.68935 1.4596 2.68935H1.47643C2.37351 2.68935 2.93051 2.0951 2.93051 1.35304C2.91488 0.594158 2.37411 0.017334 1.49385 0.017334H1.49325ZM0.191192 11.4769H2.76166V3.74446H0.191192V11.4769Z" fill="white"/>
</svg>
