<svg width="15" height="15" viewBox="0 0 15 15" fill="none" xmlns="http://www.w3.org/2000/svg">
<path d="M6.13341 4.29698C6.13341 4.76572 6.13341 5.22005 6.28125 5.64553C4.72716 7.47004 0.623798 12.2909 0.241587 12.6587C0.165623 12.7269 0.104855 12.8103 0.0632322 12.9034C0.0216098 12.9966 6.54317e-05 13.0975 0 13.1996C0 13.5061 0.1875 13.8017 0.346154 13.9676C0.584135 14.2164 1.60096 15.1575 1.78846 14.9772C2.34375 14.4364 2.45553 14.2921 2.68269 14.0686C3.02524 13.7332 2.64663 13.0481 2.76562 12.7705C2.88462 12.4929 3.01082 12.4388 3.21635 12.3955C3.42187 12.3522 3.78606 12.5001 4.07091 12.5037C4.37019 12.5073 4.53245 12.3811 4.75601 12.1719C4.9363 12.0061 5.06611 11.851 5.06971 11.6094C5.07692 11.2849 4.60817 10.8558 4.95793 10.5133C5.30769 10.1707 5.8125 10.7368 6.18389 10.6936C6.55529 10.6503 7.00601 10.1347 7.05288 9.91474C7.09976 9.69479 6.63101 9.12868 6.70312 8.80777C6.72836 8.6996 6.94832 8.4472 7.11418 8.41114C7.28005 8.37508 8.01562 8.65994 8.18149 8.62388C8.38341 8.58061 8.61779 8.36787 8.80889 8.24888C9.36779 8.49047 9.8762 8.58782 10.5288 8.58782C12.9988 8.58782 15 6.66235 15 4.28976C15 1.91718 12.9988 0 10.5288 0C8.05889 0 6.13341 1.92439 6.13341 4.29698ZM12.6923 3.46152C12.6923 3.68973 12.6246 3.91281 12.4978 4.10256C12.3711 4.29231 12.1909 4.4402 11.98 4.52753C11.7692 4.61486 11.5372 4.63771 11.3134 4.59319C11.0895 4.54867 10.8839 4.43878 10.7226 4.27741C10.5612 4.11604 10.4513 3.91045 10.4068 3.68663C10.3623 3.4628 10.3851 3.2308 10.4724 3.01997C10.5598 2.80913 10.7077 2.62892 10.8974 2.50214C11.0872 2.37535 11.3103 2.30768 11.5385 2.30768C11.8445 2.30768 12.138 2.42925 12.3544 2.64563C12.5707 2.86202 12.6923 3.1555 12.6923 3.46152Z" fill="#404750"/>
</svg>
