<svg width="15" height="13" viewBox="0 0 15 13" fill="none" xmlns="http://www.w3.org/2000/svg">
<path d="M13.2823 3.61305C13.2919 3.7448 13.2919 3.87579 13.2919 4.00679C13.2919 8.01578 10.3178 12.6353 4.88254 12.6353C3.20801 12.6353 1.65236 12.1377 0.343262 11.2734C0.581012 11.3013 0.809957 11.311 1.05725 11.311C2.38762 11.3143 3.68032 10.8579 4.72697 10.0154C4.11016 10.0039 3.51222 9.79513 3.01666 9.41816C2.5211 9.04118 2.15265 8.51484 1.96275 7.91263C2.14547 7.94049 2.32892 7.95931 2.52117 7.95931C2.78608 7.95931 3.05244 7.92167 3.29973 7.85617C2.63033 7.7175 2.02841 7.34524 1.59631 6.80268C1.16421 6.26012 0.928607 5.58076 0.929566 4.88011V4.84247C1.32362 5.06757 1.78077 5.20836 2.26508 5.22718C1.85935 4.95057 1.52667 4.57522 1.29671 4.13462C1.06676 3.69402 0.946673 3.20187 0.947178 2.70208C0.947178 2.13894 1.0932 1.62248 1.3493 1.17227C2.092 2.1096 3.01832 2.87642 4.06827 3.42307C5.11821 3.96972 6.26836 4.28401 7.44423 4.34558C7.39873 4.11972 7.37085 3.88558 7.37085 3.65069C7.37065 3.2524 7.44697 2.85797 7.59545 2.48996C7.74392 2.12195 7.96163 1.78756 8.23613 1.50593C8.51064 1.22429 8.83655 1.00093 9.19524 0.848599C9.55394 0.69627 9.93838 0.617967 10.3266 0.618164C11.1778 0.618164 11.9461 0.984055 12.4862 1.5758C13.1479 1.44452 13.7824 1.19668 14.3617 0.84327C14.1412 1.54404 13.6791 2.13827 13.0622 2.51462C13.6491 2.44594 14.2226 2.2876 14.7639 2.04484C14.3596 2.64946 13.8587 3.17966 13.2823 3.61305Z" fill="white"/>
</svg>
