<svg width="16" height="16" viewBox="0 0 16 16" fill="none" xmlns="http://www.w3.org/2000/svg">
<path fill-rule="evenodd" clip-rule="evenodd" d="M0 8C0 3.58115 3.58308 0 8 0C12.4173 0 16 3.58154 16 8C16 12.4185 12.4185 16 8 16C3.58154 16 0 12.4188 0 8ZM11.7238 10.0585C12.155 9.72923 12.6912 9.07269 12.8008 7.81769C12.915 6.50577 12.5527 5.31962 11.78 4.47692C10.9746 3.59808 9.79269 3.13346 8.36192 3.13346C7.08769 3.13346 5.84731 3.63346 4.87346 4.53692C3.89962 5.44038 3.30192 6.64423 3.19 7.92615C3.07538 9.23846 3.48231 10.4715 4.33038 11.3988C5.16615 12.3108 6.33115 12.8131 7.61115 12.8131C8.465 12.8131 9.03654 12.7119 9.87577 12.4131C10.0103 12.3651 10.1203 12.2657 10.1815 12.1367C10.2428 12.0076 10.2503 11.8595 10.2023 11.725C10.1544 11.5905 10.0549 11.4805 9.9259 11.4192C9.79686 11.358 9.64878 11.3505 9.51423 11.3985C8.78846 11.6573 8.34192 11.7362 7.61115 11.7362C6.63615 11.7362 5.75346 11.3562 5.12423 10.6692C4.48077 9.96731 4.175 9.02577 4.26269 8.01808C4.44615 5.91923 6.285 4.21038 8.36192 4.21038C9.48269 4.21038 10.3904 4.55423 10.9862 5.20423C11.5592 5.83115 11.8169 6.70231 11.7265 7.72308C11.6512 8.58731 11.3273 9.00462 11.0688 9.20269C10.8277 9.38731 10.6081 9.40846 10.5162 9.39231C10.1696 9.33 9.99769 8.97846 10.0435 8.42692L10.2873 6.48923L10.1392 6.31C9.72885 5.81308 8.76615 5.39654 7.72 5.56154C6.72154 5.71885 5.64808 6.58 5.53269 7.92615C5.46808 8.65192 5.68423 9.34192 6.12192 9.81962C6.30984 10.0255 6.53896 10.1895 6.7944 10.301C7.04985 10.4125 7.3259 10.4691 7.60462 10.4669C8.23589 10.4743 8.84439 10.2313 9.29692 9.79115C9.41701 9.96371 9.56992 10.1109 9.74692 10.2244C9.92391 10.3378 10.1215 10.4153 10.3285 10.4523C10.775 10.5323 11.2927 10.3877 11.7238 10.0585ZM6.60637 8.02029C6.67483 7.23491 7.3183 6.71529 7.88868 6.62568C8.32619 6.55702 8.77395 6.64268 9.15522 6.86799L9.03214 7.84683C9.0258 7.87301 9.02143 7.89962 9.01906 7.92645C8.94137 8.81568 8.38676 9.39029 7.6056 9.39029C7.47619 9.39248 7.34779 9.36702 7.229 9.31562C7.11021 9.26421 7.00376 9.18805 6.91676 9.09222C6.68329 8.83645 6.56791 8.44568 6.60637 8.02029Z" fill="#404750"/>
</svg>
