<svg width="18" height="18" viewBox="0 0 18 18" fill="none" xmlns="http://www.w3.org/2000/svg">
<path d="M9.74845 9L11.8434 6.90505C11.9428 6.8058 11.9987 6.67112 11.9989 6.53064C11.999 6.39015 11.9433 6.25537 11.8441 6.15594C11.7448 6.05652 11.6101 6.00059 11.4696 6.00047C11.3292 6.00034 11.1944 6.05603 11.0949 6.15528L9 8.25023L6.90505 6.15528C6.80563 6.05586 6.67078 6 6.53017 6C6.38956 6 6.25471 6.05586 6.15528 6.15528C6.05586 6.25471 6 6.38956 6 6.53017C6 6.67078 6.05586 6.80563 6.15528 6.90505L8.25023 9L6.15528 11.0949C6.05586 11.1944 6 11.3292 6 11.4698C6 11.6104 6.05586 11.7453 6.15528 11.8447C6.25471 11.9441 6.38956 12 6.53017 12C6.67078 12 6.80563 11.9441 6.90505 11.8447L9 9.74977L11.0949 11.8447C11.1944 11.9441 11.3292 12 11.4698 12C11.6104 12 11.7453 11.9441 11.8447 11.8447C11.9441 11.7453 12 11.6104 12 11.4698C12 11.3292 11.9441 11.1944 11.8447 11.0949L9.74845 9Z" fill="white"/>
<path fill-rule="evenodd" clip-rule="evenodd" d="M0 9C0 4.03111 4.03111 0 9 0C13.9689 0 18 4.03111 18 9C18 13.9689 13.9689 18 9 18C4.03111 18 0 13.9689 0 9ZM9 1.38462C4.79581 1.38462 1.38462 4.79581 1.38462 9C1.38462 13.2042 4.79581 16.6154 9 16.6154C13.2042 16.6154 16.6154 13.2042 16.6154 9C16.6154 4.79581 13.2042 1.38462 9 1.38462Z" fill="#404750"/>
</svg>
